<?xml version="1.0" standalone="no"?>
<!DOCTYPE svg PUBLIC "-//W3C//DTD SVG 1.1//EN" "http://www.w3.org/Graphics/SVG/1.1/DTD/svg11.dtd" >
<svg xmlns="http://www.w3.org/2000/svg">
<metadata></metadata>
<defs>
<font id="kelsonsans-regularregular" horiz-adv-x="1073" >
<font-face units-per-em="2048" ascent="1536" descent="-512" />
<missing-glyph horiz-adv-x="514" />
<glyph horiz-adv-x="0" />
<glyph horiz-adv-x="682" />
<glyph unicode="&#xd;" horiz-adv-x="681" />
<glyph unicode=" "  horiz-adv-x="514" />
<glyph unicode="&#x09;" horiz-adv-x="514" />
<glyph unicode="&#xa0;" horiz-adv-x="514" />
<glyph unicode="!" horiz-adv-x="466" d="M123 90q0 64 37 94q37 31 81 32t81 -30q36 -32 36 -94t-59 -92t-117 -2t-59 92zM143 340v1243h195v-1243h-195z" />
<glyph unicode="&#x22;" horiz-adv-x="542" d="M72 1581h161l-6 -375h-149zM332 1581h162l-7 -375h-149z" />
<glyph unicode="#" horiz-adv-x="1497" d="M66 446l43 172h251l68 275h-254l43 172h254l127 518h170l-127 -518h358l127 518h170l-127 -518h277l-43 -172h-277l-67 -275h276l-43 -172h-274l-111 -450h-172l111 450h-359l-110 -450h-170l110 450h-251zM530 618h359l67 275h-358z" />
<glyph unicode="$" horiz-adv-x="1130" d="M90 418h211q7 -111 69 -173t203 -63h39q152 0 204 68t52 217q0 90 -23 145q-24 55 -83 82q-111 51 -260 51q-157 12 -265 95q-131 98 -131 307t94 319t296 127v199h182v-203q330 -43 348 -399h-203q-8 109 -61 165t-199 56q-145 0 -199 -63q-54 -64 -54 -178t46 -161 q18 -17 32 -29t42 -20q29 -10 53 -18t112 -16q89 -8 103 -11q371 -37 371 -438q0 -241 -92 -355t-299 -128v-209h-182v211q-387 35 -406 422z" />
<glyph unicode="%" horiz-adv-x="1611" d="M61 1112v176q0 303 299 303q156 1 230 -73t74 -230v-176q0 -156 -74 -230t-229 -73q-155 0 -227 74t-73 229zM225 1120q-1 -82 29 -122t107 -40t107 40t30 122v164q0 82 -29 120t-107 38t-108 -39t-29 -119v-164zM473 -29l465 1624h147l-460 -1624h-152zM928 303v176 q0 303 299 303q155 0 229 -74t74 -229v-176q0 -155 -74 -229t-228 -74q-155 0 -228 74t-72 229zM1092 311q0 -82 29 -122q30 -39 107 -39q76 0 106 40t30 121v164q0 82 -29 120t-107 38t-107 -39q-30 -39 -29 -119v-164z" />
<glyph unicode="&#x26;" horiz-adv-x="1251" d="M109 442q0 268 245 402q-184 120 -184 320t116 319t310 119t302 -108t95 -306h-178q12 236 -227 235q-96 1 -162 -67t-66 -172t66 -178t162 -74h604v-172h-191v-338q0 -242 160 -242l-4 -203q-102 0 -161 36q-58 36 -95 128q-115 -166 -327 -166t-341 113 q-127 113 -124 354zM301 434q0 -82 28 -140q67 -138 257 -138q96 0 160 80t65 188v336h-225q-119 0 -202 -91t-83 -235z" />
<glyph unicode="'" horiz-adv-x="301" d="M72 1581h161l-6 -375h-149z" />
<glyph unicode="(" horiz-adv-x="528" d="M119 147v1053q0 414 362 414v-201q-98 0 -131 -53t-33 -162v-1048q0 -109 33 -162t131 -54v-200q-362 0 -362 413z" />
<glyph unicode=")" horiz-adv-x="546" d="M63 -66q98 0 131 54t33 162v1048q0 109 -32 162q-33 53 -132 53v201q362 0 363 -414v-1053q0 -414 -363 -413v200z" />
<glyph unicode="*" horiz-adv-x="655" d="M59 1436l162 161l92 -151l45 -4l95 155l161 -159l-153 -95l-2 -43l155 -96l-161 -162l-95 154l-43 2l-94 -154l-160 160l150 94l2 43z" />
<glyph unicode="+" horiz-adv-x="927" d="M68 659v160h301v307h178v-307h303v-160h-303v-315h-178v315h-301z" />
<glyph unicode="," horiz-adv-x="387" d="M0 -211q80 59 101 129q22 70 22 197h170q0 -172 -52 -266q-53 -92 -180 -160z" />
<glyph unicode="-" horiz-adv-x="1009" d="M125 526v179h770v-179h-770z" />
<glyph unicode="." horiz-adv-x="411" d="M102 90q0 64 37 94q37 31 81 32t81 -30q37 -32 37 -94t-59 -92t-118 -2t-59 92z" />
<glyph unicode="/" horiz-adv-x="761" d="M82 -2l428 1579h164l-428 -1579h-164z" />
<glyph unicode="0" horiz-adv-x="1056" d="M106 436v715q0 430 435 430q418 0 417 -430v-715q0 -244 -98 -350t-324 -106t-328 106q-101 106 -102 350zM301 436q-1 -160 53 -219t178 -59t178 61t54 217v715q0 154 -53 206t-173 52t-178 -53t-59 -205v-715z" />
<glyph unicode="1" horiz-adv-x="776" d="M49 0v166h256v1241h-201v174h396v-1415h243v-166h-694z" />
<glyph unicode="2" horiz-adv-x="1052" d="M100 1157q0 223 116 333t321 110t317 -102q112 -101 113 -306q0 -115 -37 -198t-95 -129t-129 -82q-71 -37 -143 -71t-130 -79t-95 -126t-37 -194v-120h653v-193h-852v311q0 135 37 239t95 162q96 98 274 184q72 34 130 70q132 82 132 224q0 117 -58 174t-182 57 q-236 0 -235 -264h-195z" />
<glyph unicode="3" horiz-adv-x="1060" d="M82 446h190q0 -141 54 -202q54 -62 185 -62q130 0 194 66q63 66 63 219q0 299 -274 299h-113v172h113q94 4 181 80t87 182t-60 166q-60 59 -176 59q-242 0 -241 -264h-185q0 430 428 436q188 0 306 -102t116 -299q0 -104 -51 -202t-160 -142q121 -47 177 -135t57 -248 q0 -225 -118 -351t-346 -126t-328 110q-99 111 -99 344z" />
<glyph unicode="4" horiz-adv-x="1120" d="M-4 500l684 1083h182v-1063h139v-178h-139v-342h-194v342h-643zM223 520h445v719z" />
<glyph unicode="5" horiz-adv-x="1062" d="M82 467h192q0 -293 248 -293q264 0 264 318v55q0 174 -51 232t-198 59h-428v741h821v-182h-631v-375h242q244 0 342 -108t98 -363v-62q0 -255 -124 -379t-335 -124q-212 0 -326 112t-114 369z" />
<glyph unicode="6" horiz-adv-x="1118" d="M113 436v291q0 267 137 489t352 367h258l4 -14q-350 -242 -456 -449q94 25 210 25q184 1 288 -103t104 -315v-291q0 -246 -104 -351t-345 -105q-242 0 -345 105t-103 351zM307 436q1 -158 59 -214t195 -56t196 56q58 56 58 214v291q0 143 -58 197q-57 54 -195 53 q-138 0 -196 -53t-59 -197v-291z" />
<glyph unicode="7" horiz-adv-x="921" d="M27 1397v184h852v-47l-533 -1534h-211l492 1397h-600z" />
<glyph unicode="8" horiz-adv-x="1122" d="M82 471q0 176 44 269t136 145q-150 96 -150 300q0 203 118 313t324 110t318 -118t111 -306q0 -188 -149 -291q98 -53 142 -143t44 -269q0 -259 -116 -379t-354 -120q-240 0 -354 118t-114 371zM299 478q-1 -158 55 -234t197 -76t197 76q55 76 55 234t-55 242 q-54 83 -196 83t-198 -83t-55 -242zM307 1192q0 -104 67 -160t175 -57q233 0 233 213q0 231 -231 231q-121 0 -183 -61q-62 -62 -61 -166z" />
<glyph unicode="9" horiz-adv-x="1118" d="M113 856v291q0 246 103 351q103 106 345 106t345 -106t104 -351v-291q0 -270 -131 -491t-344 -365h-265l-4 14q338 233 449 449q-94 -25 -211 -25q-184 0 -288 104t-103 314zM307 856q1 -142 59 -196t195 -54t196 53q58 53 58 197v291q0 158 -58 214q-59 56 -196 56 t-195 -56t-59 -214v-291z" />
<glyph unicode=":" horiz-adv-x="428" d="M102 90q0 64 37 94q37 31 81 32t81 -30q37 -32 37 -94t-59 -92t-118 -2t-59 92zM102 860q0 64 37 94q37 31 81 32t81 -30q37 -32 37 -94t-59 -92t-118 -2t-59 92z" />
<glyph unicode=";" horiz-adv-x="456" d="M29 -211q80 59 101 129q22 70 22 197h170q0 -172 -52 -265t-180 -161zM117 860q0 64 37 94q36 31 80 32t81 -30q37 -32 37 -94t-59 -92t-117 -2t-59 92z" />
<glyph unicode="&#x3c;" horiz-adv-x="786" d="M102 618v58l449 420l106 -115l-360 -334l367 -332l-113 -116z" />
<glyph unicode="=" horiz-adv-x="1167" d="M160 348v158h848v-158h-848zM160 780v158h848v-158h-848z" />
<glyph unicode="&#x3e;" horiz-adv-x="790" d="M127 309l367 338l-363 338l107 111l450 -420v-58l-450 -419z" />
<glyph unicode="?" horiz-adv-x="1003" d="M61 1190q0 102 15 172q35 173 186 228q88 32 225 32q414 0 414 -475v-90q0 -191 -78 -287q-50 -61 -125 -117q-75 -57 -110 -91q-80 -78 -78 -220h-184q0 182 75 283q45 59 121 114q76 57 109 91q76 79 76 225v86q-1 165 -55 231t-181 66t-174 -52t-47 -196h-189zM313 90 q0 64 37 94q37 31 81 32t81 -30q37 -32 37 -94q1 -62 -59 -92t-118 -2t-59 92z" />
<glyph unicode="@" horiz-adv-x="1398" d="M92 360v752q0 133 18 216q37 179 206 230q89 26 233 25h295q143 1 233 -25q89 -26 141 -86t70 -144q18 -83 19 -216v-395q0 -188 -75 -255t-207 -67t-185 125q-27 -29 -44 -43q-16 -15 -58 -31t-93 -16q-119 0 -185 66t-65 188v246q0 120 85 186t206 66h289v-477 q0 -49 2 -73t18 -46t53 -23q37 0 51 32q13 32 13 105v418q0 160 -48 216t-208 55h-330q-145 -1 -194 -57t-49 -179v-729q0 -123 49 -179t194 -57h525v-190h-586q-234 0 -308 100q-37 50 -51 110t-14 152zM580 727q-1 -123 108 -123q102 0 103 139v267h-105q-106 0 -106 -113 v-170z" />
<glyph unicode="A" d="M18 0l420 1575h199l418 -1575h-201l-80 293h-473l-80 -293h-203zM350 477h373l-82 336l-104 508l-107 -514z" />
<glyph unicode="B" horiz-adv-x="1173" d="M123 -2v1587h397q205 -1 317 -111q111 -110 111 -295t-112 -300q128 -39 196 -143t68 -255q0 -483 -510 -483h-467zM317 934h183q129 0 189 71q61 71 61 177t-64 163q-64 58 -166 58h-203v-469zM322 184h272q170 0 239 75t69 219t-79 206q-78 62 -223 64h-278v-564z" />
<glyph unicode="C" horiz-adv-x="1208" d="M121 524v537q0 139 19 230q44 209 229 270q100 33 254 33q299 -1 401 -117q52 -61 72 -140t22 -202h-190q-2 154 -60 215t-243 61q-101 0 -163 -17q-62 -16 -94 -64t-41 -106t-10 -161v-541q1 -200 59 -274t252 -74t249 59t55 250h186q0 -281 -79 -368t-219 -111 q-82 -14 -196 -14t-197 14t-138 48t-89 74t-56 126t-23 272z" />
<glyph unicode="D" horiz-adv-x="1230" d="M145 0v1579h480q305 0 407 -137q54 -72 72 -162t18 -229v-521q0 -139 -19 -230q-44 -211 -231 -269q-96 -31 -244 -31h-18h-465zM340 186h270q111 0 174 16q114 30 134 166q8 54 8 160v525q0 106 -8 160q-20 137 -134 165q-63 16 -174 17h-270v-1209z" />
<glyph unicode="E" horiz-adv-x="1067" d="M143 0v1581h797v-172h-602v-475h545v-182h-545v-570h653v-182h-848z" />
<glyph unicode="F" horiz-adv-x="1054" d="M141 -2v1581h848v-180h-653v-484h567v-182h-567v-735h-195z" />
<glyph unicode="G" horiz-adv-x="1251" d="M117 516v549q0 139 19 230q44 210 231 270q103 33 285 33t292 -49q110 -48 148 -138q39 -90 43 -256h-191q-2 98 -25 152q-51 114 -282 114h-8q-190 0 -253 -76q-62 -77 -63 -278v-553q1 -106 9 -162q21 -138 133 -169q63 -17 175 -17t173 11t94 51t40 91t7 156v215h-307 v176h504v-391q0 -104 -7 -170q-7 -65 -36 -133t-83 -104q-125 -84 -380 -84h-6q-160 0 -262 32q-185 59 -231 270q-19 91 -19 230z" />
<glyph unicode="H" horiz-adv-x="1206" d="M143 -2v1577h199v-727h528v727h195v-1575h-195v662h-528v-664h-199z" />
<glyph unicode="I" horiz-adv-x="485" d="M143 -2v1577h199v-1577h-199z" />
<glyph unicode="J" horiz-adv-x="989" d="M16 473h185q0 -167 50 -233t194 -66t185 73q40 73 40 275v1059h196v-1057q0 -141 -16 -232q-37 -212 -191 -270q-86 -34 -219 -34q-246 0 -335 118t-89 367z" />
<glyph unicode="K" horiz-adv-x="1155" d="M133 0v1579h195v-696h75l471 696h230l-545 -791l588 -788h-240l-504 680h-75v-680h-195z" />
<glyph unicode="L" horiz-adv-x="1005" d="M143 0v1579h197v-1399h616v-180h-813z" />
<glyph unicode="M" horiz-adv-x="1288" d="M143 0v1581h224l278 -868l279 868h223v-1581h-195v743l29 433l-289 -887h-94l-289 887l29 -433v-743h-195z" />
<glyph unicode="N" horiz-adv-x="1167" d="M141 0v1579h185l534 -1208l-29 536v672h195v-1579h-182l-520 1135l12 -519v-616h-195z" />
<glyph unicode="O" horiz-adv-x="1271" d="M121 518v551q0 139 19 230q44 210 231 270q102 33 262 33q314 0 419 -139q54 -73 74 -164q19 -87 19 -217v-13v-551v-13q0 -130 -19 -217q-45 -211 -231 -270q-102 -32 -262 -32t-262 32q-185 59 -231 270q-19 91 -19 230zM317 516q1 -106 9 -162q21 -137 133 -169 q63 -17 174 -17t174 17q113 30 133 169q8 56 8 162v555q0 159 -21 219t-55 82t-93 37q-58 14 -146 14q-164 0 -232 -46q-69 -46 -79 -172q-4 -48 -5 -134v-555z" />
<glyph unicode="P" horiz-adv-x="1101" d="M143 -2v1581l424 2q219 0 334 -100t115 -330v-172q0 -246 -104 -351t-345 -106h-229v-524h-195zM338 709h229q137 0 196 56q58 56 58 214v172q0 152 -54 195q-55 43 -200 51h-229v-688z" />
<glyph unicode="Q" horiz-adv-x="1267" d="M121 528v539q0 139 19 230q44 210 231 270q102 33 262 33t262 -34q186 -59 230 -269q20 -91 20 -230v-539q-1 -227 -61 -348t-232 -162q8 -119 68 -175q45 -42 140 -42q30 0 66 4v-174q-39 -3 -74 -3q-384 0 -395 368h-24q-314 0 -419 138q-54 73 -74 164q-19 91 -19 230 zM317 526q1 -106 9 -161t39 -103t94 -66t174 -18t174 18q113 31 133 169q8 55 8 161v543q0 105 -8 161q-20 137 -133 170q-63 17 -174 17t-174 -17q-63 -18 -94 -66t-39 -103t-9 -162v-543z" />
<glyph unicode="R" horiz-adv-x="1105" d="M143 -2v1583l424 2q217 0 333 -101t116 -331v-111q0 -198 -68 -306t-227 -138l342 -596h-229l-318 584h-178v-586h-195zM338 770h229q137 0 196 56q58 56 58 214v111q0 152 -54 195q-55 43 -200 51h-229v-627z" />
<glyph unicode="S" horiz-adv-x="1161" d="M90 418h211q7 -111 69 -173t203 -63h39q152 0 204 68t52 217q0 90 -23 145q-24 55 -83 82q-111 51 -260 51q-157 12 -265 95q-131 98 -131 317t111 329t347 110t344 -103q108 -102 118 -303h-203q-8 109 -61 165t-199 56q-145 0 -199 -63q-54 -64 -54 -178t46 -161 q18 -17 32 -29t42 -20q29 -10 53 -18t112 -16q89 -8 103 -11q371 -37 371 -438q0 -256 -105 -371q-104 -114 -346 -114h-4h-39q-463 0 -485 426z" />
<glyph unicode="T" horiz-adv-x="882" d="M16 1391v180h850v-180h-327v-1391h-195v1391h-328z" />
<glyph unicode="U" horiz-adv-x="1232" d="M123 520v1059h196v-1061q1 -196 59 -272t234 -76t232 76t57 272v1063h197v-1061q0 -272 -108 -402t-378 -130t-380 130t-109 402z" />
<glyph unicode="V" horiz-adv-x="1071" d="M18 1581h201l158 -588l160 -694l157 696l158 586h201l-428 -1583h-179z" />
<glyph unicode="W" horiz-adv-x="1671" d="M18 1581h201l152 -668l114 -589l271 1171h151l271 -1171l114 589l152 668h201l-377 -1583h-178l-134 530l-125 568l-124 -568l-134 -530h-178z" />
<glyph unicode="X" horiz-adv-x="999" d="M18 -2l347 797l-347 786h213l131 -299l138 -354l137 352l131 301h213l-346 -786l346 -797h-213l-86 197l-182 462l-181 -460l-88 -199h-213z" />
<glyph unicode="Y" horiz-adv-x="944" d="M-4 1581h211l127 -307l139 -393l139 393l127 307h211l-381 -919v-664h-194v664z" />
<glyph unicode="Z" horiz-adv-x="962" d="M29 0l630 1409h-546v172h823l-631 -1403h608v-178h-884z" />
<glyph unicode="[" horiz-adv-x="679" d="M186 -223v1810h426v-153h-254v-1502h254v-155h-426z" />
<glyph unicode="\" horiz-adv-x="761" d="M92 1577h164l428 -1579h-164z" />
<glyph unicode="]" horiz-adv-x="698" d="M86 -61h254v1501h-254v153h426v-1810h-426v156z" />
<glyph unicode="^" horiz-adv-x="1267" d="M111 895l442 692h125l448 -692l-2 -10h-184l-324 516l-325 -516h-178z" />
<glyph unicode="_" horiz-adv-x="1101" d="M72 -18h962v-164h-962v164z" />
<glyph unicode="`" horiz-adv-x="501" d="M57 1577v6h199l109 -260v-10h-162z" />
<glyph unicode="a" d="M90 276q-2 20 -2 38q0 133 87 226q99 106 284 134q92 14 289 18v117q0 111 -50 167t-160 56t-159 -44q-47 -42 -47 -148v-9h-191v22q0 178 92 265q98 92 298 92q201 0 307 -95t106 -306v-809h-176l-16 162q-35 -72 -118 -122t-188 -50q-328 0 -356 286zM287 301 q10 -125 180 -125q275 0 285 354q-184 0 -277 -20q-190 -41 -190 -180q0 -14 2 -29z" />
<glyph unicode="b" horiz-adv-x="1122" d="M113 436v1176h196v-522q82 120 292 120q209 0 309 -116t100 -344v-314q0 -246 -104 -351t-345 -105q-242 0 -345 105t-103 351zM307 436q1 -156 61 -213t193 -57t194 57q60 57 60 213v309q0 163 -58 221q-59 58 -187 58t-194 -59t-67 -211z" />
<glyph unicode="c" horiz-adv-x="1081" d="M102 436v340q0 436 449 436q211 0 321 -90t117 -311l-184 -2q-7 133 -67 178t-190 45t-190 -51t-61 -205v-340q0 -156 60 -213q61 -57 195 -57t192 48t61 192h184q-2 -236 -102 -331t-336 -95t-342 108t-107 348z" />
<glyph unicode="d" horiz-adv-x="1159" d="M111 426v315q0 465 405 465q106 0 174 -22t115 -82v500h196v-1602h-163l-25 158q-27 -76 -109 -120t-188 -44q-406 0 -405 432zM305 424q0 -140 56 -194q53 -52 176 -52h9q130 2 194 72t65 239v259q0 152 -56 210q-55 58 -189 60q-134 0 -194 -62t-61 -219v-313z" />
<glyph unicode="e" horiz-adv-x="1101" d="M109 426v350q0 225 113 327q114 101 329 101q442 0 442 -428v-256h-692v-90q0 -154 57 -208t193 -54q250 0 250 180h188q0 -178 -105 -269t-339 -91t-335 99t-101 339zM301 690h506v86q0 148 -65 202q-66 54 -192 54t-188 -53t-61 -203v-86z" />
<glyph unicode="f" horiz-adv-x="655" d="M121 -2v1155q0 241 130 351q109 92 285 92q34 0 70 -3v-178q-29 3 -56 3q-104 0 -162 -44q-73 -55 -73 -221v-41h256v-180h-256v-934h-194z" />
<glyph unicode="g" horiz-adv-x="1089" d="M102 406v362q0 432 406 432q106 0 186 -43t107 -121l24 152h162v-1229q0 -237 -117 -347q-116 -110 -320 -110t-308 83t-113 274h186q9 -99 67 -139t175 -40t183 63q66 62 65 216v197q-25 -66 -101 -114t-186 -48q-416 0 -416 412zM297 428q0 -136 55 -194t178 -58 t193 69t70 244v232q-3 161 -65 227t-190 68h-9q-121 0 -175 -51q-56 -53 -57 -195v-342z" />
<glyph unicode="h" horiz-adv-x="1105" d="M113 0v1612h196v-522q84 122 289 122t300 -116t95 -346v-750h-194v745q-1 159 -55 219t-183 60t-189 -65t-63 -205l-2 -754h-194z" />
<glyph unicode="i" horiz-adv-x="491" d="M129 1462q0 64 37 94t81 32q44 0 81 -30t37 -94q0 -60 -59 -91q-31 -16 -62 -16q-29 0 -57 14q-58 27 -58 91zM147 0v1190h195v-1190h-195z" />
<glyph unicode="j" horiz-adv-x="495" d="M2 -213q25 -4 45 -4q83 0 105 66q12 36 12 96v1243h190v-1243q0 -189 -85 -269q-70 -66 -206 -66q-29 0 -61 3v174zM141 1462q0 64 37 94t81 32q44 0 81 -30t37 -94q0 -61 -59 -91q-31 -16 -62 -16q-28 0 -56 14q-58 27 -59 91z" />
<glyph unicode="k" horiz-adv-x="1044" d="M113 0v1581h194v-864h78l371 481h237l-438 -563l479 -635h-233l-406 532h-88v-532h-194z" />
<glyph unicode="l" horiz-adv-x="518" d="M143 311v1270h191v-1268q0 -69 28 -95q27 -25 90 -25h5v-193q-180 0 -247 64t-67 247z" />
<glyph unicode="m" horiz-adv-x="1888" d="M152 0v1198h163l15 -131q100 145 307 145q244 0 328 -147q119 147 366 147q207 0 306 -97t100 -341v-774h-197v778q0 248 -233 248q-264 0 -265 -305v-721h-196v782q0 150 -58 199t-178 49q-122 0 -192 -60t-70 -190v-780h-196z" />
<glyph unicode="n" horiz-adv-x="1193" d="M162 0v1198h174l12 -127q86 141 299 141t309 -99t97 -333v-780h-197v778q0 125 -62 191q-62 65 -175 65t-187 -66t-74 -188v-780h-196z" />
<glyph unicode="o" horiz-adv-x="1101" d="M102 436v342q0 230 116 332t333 102t333 -102t115 -332v-342q0 -244 -105 -350t-345 -106t-343 105t-104 351zM297 436v-5q0 -156 59 -218q60 -63 196 -63t194 63t59 223v342q-1 154 -61 207t-193 53t-193 -53t-61 -207v-342z" />
<glyph unicode="p" horiz-adv-x="1150" d="M135 -403v1601h164l25 -158q27 76 108 120q82 44 189 44q406 0 405 -432v-315q0 -465 -405 -465q-107 0 -175 22t-114 82v-499h-197zM332 451q0 -152 56 -211q56 -60 190 -60t193 62q60 62 60 219v313q0 140 -56 194q-54 52 -176 52h-9q-129 -2 -194 -72 q-64 -69 -64 -234v-5v-258z" />
<glyph unicode="q" horiz-adv-x="1126" d="M109 446v314q0 246 103 351t345 105t345 -104q103 -106 104 -352v-1176h-197v522q-82 -120 -292 -120t-309 116t-99 344zM303 451q0 -163 58 -221q59 -58 187 -58t194 59t67 211l2 318q0 156 -60 213q-59 57 -193 57t-194 -57t-61 -213v-309z" />
<glyph unicode="r" horiz-adv-x="712" d="M123 -2v1200h178l8 -111q45 70 140 102q55 19 115 18q43 0 89 -9v-199q-43 7 -81 7q-93 0 -160 -43q-94 -61 -95 -195v-770h-194z" />
<glyph unicode="s" horiz-adv-x="999" d="M78 371h196q14 -203 238 -203q109 0 169 51t60 134t-53 118q-53 34 -114 41q-62 6 -119 10q-367 27 -367 324q0 166 106 266t311 100q204 0 303 -91q95 -87 95 -248v-13h-186q0 176 -217 176t-217 -190q0 -95 64 -121q53 -22 184 -31q240 -18 322 -98q83 -80 83 -249 t-116 -263t-308 -94q-420 0 -434 381z" />
<glyph unicode="t" horiz-adv-x="600" d="M131 330v1077l191 23v-238h206v-184h-206v-672q0 -94 49 -132q36 -28 108 -28q27 0 58 4v-180q-51 -6 -95 -6q-151 0 -221 67q-90 87 -90 269z" />
<glyph unicode="u" horiz-adv-x="1169" d="M135 418v772h197v-770q0 -125 62 -191q62 -65 175 -65t187 66t73 188v772h197v-1190h-174l-12 127q-86 -141 -300 -141t-309 99q-96 99 -96 333z" />
<glyph unicode="v" horiz-adv-x="915" d="M6 1198h203l123 -399q63 -215 127 -529q74 371 127 533l123 395h202l-354 -1200h-197z" />
<glyph unicode="w" horiz-adv-x="1521" d="M16 1198h205l123 -399q40 -130 74 -317q35 -187 41 -212q55 283 119 533l110 395h143l113 -395q53 -211 117 -533q6 25 41 212q34 187 74 317l122 399h205l-344 -1200h-194l-99 350l-106 465l-109 -471l-96 -344h-195z" />
<glyph unicode="x" horiz-adv-x="972" d="M18 0l355 604l-342 590h219l112 -190l123 -238l127 240l111 188h213l-340 -588l360 -606h-219l-121 209l-133 252l-133 -254l-119 -207h-213z" />
<glyph unicode="y" horiz-adv-x="1005" d="M31 1198h213l114 -385l154 -555q43 219 150 567l116 373h203l-446 -1427q-57 -179 -161 -229q-43 -21 -98 -21q-78 0 -178 41l35 166q62 -24 101 -24q10 0 19 2q74 14 109 122l50 170z" />
<glyph unicode="z" horiz-adv-x="995" d="M63 0v31l590 989h-534v178h823v-35l-582 -981h594v-182h-891z" />
<glyph unicode="{" horiz-adv-x="655" d="M84 696v129q154 0 154 209v369q0 188 87 265t283 40v-137q-119 23 -161 -13t-41 -161v-363q0 -184 -61 -232q-32 -26 -83 -40q106 -28 129 -112q17 -62 17 -161v-446q0 -123 38 -155t162 -15l2 -141l-2 -2q-202 -33 -286 42t-84 263v452q0 209 -154 209z" />
<glyph unicode="|" horiz-adv-x="538" d="M186 -211v1800h166v-1800h-166z" />
<glyph unicode="}" horiz-adv-x="694" d="M72 -268l2 141q123 -17 162 15t38 155v446q0 105 14 155t47 77q32 27 85 41q-105 29 -127 109q-15 56 -17 163v363q0 125 -42 161t-160 13v137q198 37 284 -40t86 -265v-369q0 -209 154 -209v-129q-154 0 -154 -209v-452q0 -188 -84 -263t-286 -42z" />
<glyph unicode="~" horiz-adv-x="1323" d="M156 557q47 139 160 201q114 61 241 0l260 -127q154 -78 230 108l127 -49q-52 -145 -152 -198t-248 6l-264 129q-47 14 -88 18t-81 -30t-69 -107z" />
<glyph unicode="&#xa1;" horiz-adv-x="466" d="M121 1108q0 72 58 102q57 30 117 2t60 -101t-59 -103t-118 0q-58 28 -58 100zM141 -373v1243h195v-1243h-195z" />
<glyph unicode="&#xa2;" horiz-adv-x="1081" d="M102 436v340q0 383 357 430v203h190v-201q180 -22 265 -108t85 -293h-194q0 137 -57 184q-56 47 -194 47t-198 -58t-59 -204v-340q0 -158 59 -216q60 -58 198 -58t195 49q56 49 56 203h194q0 -218 -85 -316t-277 -114v-191h-186v193q-185 20 -267 126t-82 324z" />
<glyph unicode="&#xa3;" horiz-adv-x="1122" d="M68 0v186h196v535h-196v188h196v267q0 198 100 310t280 112q181 0 281 -102q99 -102 99 -290h-178q0 102 -52 158t-142 55q-90 0 -144 -60q-53 -60 -53 -177v-273h366v-188h-366v-537h575v-184h-962z" />
<glyph unicode="&#xa4;" horiz-adv-x="1105" d="M111 305l108 117q-55 102 -55 225t57 232l-108 118l135 154l112 -125q94 55 203 55t197 -55l114 125l136 -154l-107 -116q57 -103 57 -227t-57 -232l107 -117l-136 -151l-114 122q-90 -53 -198 -53t-202 53l-112 -122zM326 652q0 -106 64 -182q64 -77 172 -77t169 73 q61 72 61 188t-60 188q-62 72 -170 72t-173 -78q-63 -78 -63 -184z" />
<glyph unicode="&#xa5;" horiz-adv-x="1036" d="M45 1581h211l127 -307l139 -393l140 393l126 307h211l-329 -793h182v-149h-234v-78h236v-145h-236v-418h-194v418h-225v145h225v78h-225v149h172z" />
<glyph unicode="&#xa6;" horiz-adv-x="552" d="M188 -53v743h177v-743h-177zM188 836v743h177v-743h-177z" />
<glyph unicode="&#xa7;" horiz-adv-x="1024" d="M98 350h178q6 -184 207 -184q98 0 154 47q55 47 59 122t-51 109q-55 35 -156 38q-100 4 -153 20q-220 69 -215 297q4 145 139 237q-63 20 -99 78t-34 143q4 150 102 240q97 90 281 90q184 -1 272 -83t78 -234h-168q8 160 -188 160q-197 0 -203 -173q-2 -57 29 -87 q32 -30 64 -36q86 -14 132 -14q213 -21 284 -90t66 -219t-145 -238q147 -65 142 -231t-113 -251t-281 -85q-375 0 -381 344zM295 802q-2 -77 49 -117t146 -40t151 47q55 47 58 120t-57 113t-144 40t-142 -43t-61 -120z" />
<glyph unicode="&#xa8;" horiz-adv-x="911" d="M119 1464q0 64 37 95t81 31q45 0 81 -30t36 -92t-59 -93q-59 -30 -118 -2q-58 27 -58 91zM565 1474q-1 72 59 102t118 1t58 -101t-58 -101q-58 -30 -118 -2t-59 101z" />
<glyph unicode="&#xa9;" horiz-adv-x="1724" d="M124 754q0 312 184 533q88 107 234 171t324 62v-2q346 2 541 -211t195 -532t-190 -535t-546 -215t-549 209t-193 520zM276 769q0 -269 153 -438t437 -169t434 169t150 442t-152 437t-435 164t-435 -168t-152 -437zM549 662v233q0 307 315 307q295 0 307 -282l-135 -2 q-2 90 -43 122t-131 31q-90 0 -131 -35t-41 -141v-233q0 -109 42 -149t134 -40t131 32t39 134h135q-1 -163 -73 -231t-234 -68t-238 77t-77 245z" />
<glyph unicode="&#xaa;" horiz-adv-x="919" d="M98 1057v190q0 176 98 259t261 83q350 0 350 -342v-516h-131l-21 127q-18 -53 -76 -92t-147 -39q-334 0 -334 330zM131 426v158h674v-158h-674zM256 1075q0 -109 44 -155t142 -48q98 0 154 56q55 56 55 196v123q0 113 -51 155t-143 42q-201 0 -201 -197v-172z" />
<glyph unicode="&#xab;" horiz-adv-x="935" d="M100 608l283 451h180l-280 -451l280 -452h-180zM369 608l282 451h180l-280 -451l280 -452h-180z" />
<glyph unicode="&#xac;" horiz-adv-x="1083" d="M160 635v153h753v-423h-153v270h-600z" />
<glyph unicode="&#xad;" horiz-adv-x="968" d="M109 600v160h733v-160h-733z" />
<glyph unicode="&#xae;" horiz-adv-x="1716" d="M118 726q0 323 200 540t545 217t545 -217t200 -541t-200 -541t-545 -217t-545 218t-200 541zM277 728q-1 -266 156 -442q157 -175 430 -175t431 175t158 442t-158 442t-431 175q-273 1 -429 -175t-157 -442zM610 301v875h269q137 0 214 -58t76 -211v-37q0 -115 -40 -177 t-132 -81l181 -311h-160l-166 285h-107v-285h-135zM745 715h134q79 -1 113 31t34 124v37q0 47 -7 74q-14 56 -140 61h-134v-327z" />
<glyph unicode="&#xaf;" horiz-adv-x="788" d="M137 1436v151h502v-151h-502z" />
<glyph unicode="&#xb0;" horiz-adv-x="667" d="M80 1420q16 71 82 121t160 50t158 -50q115 -89 81 -262q-14 -71 -79 -121q-64 -50 -160 -50t-163 50q-119 89 -79 262zM196 1349q0 -44 32 -82t90 -38t91 38q32 38 31 82q0 44 -32 82q-34 37 -90 37t-89 -38t-33 -81z" />
<glyph unicode="&#xb1;" horiz-adv-x="1017" d="M119 684v156h315v321h164v-321h315v-156h-315v-324h-164v324h-315zM127 70v155h780v-155h-780z" />
<glyph unicode="&#xb2;" horiz-adv-x="649" d="M80 739v181q0 151 74 218q40 36 66 52t77 41q111 53 111 133q0 90 -89 90q-98 0 -90 -123h-139q-16 266 234 266q111 0 172 -59q61 -60 61 -168t-50 -165t-131 -93q-81 -37 -88 -46q-6 -9 -18 -20q-12 -10 -16 -22t-11 -31t-10 -71v-31h322v-152h-475z" />
<glyph unicode="&#xb3;" horiz-adv-x="638" d="M57 995h152q2 -123 99 -123q98 0 98 116t-99 116h-65v145h65q92 3 92 101t-88 98q-41 0 -69 -31t-27 -92h-147q0 261 237 263q117 1 183 -55t67 -175q0 -48 -25 -100t-69 -72q104 -46 104 -184q1 -138 -67 -208t-195 -71t-187 67t-59 205z" />
<glyph unicode="&#xb4;" horiz-adv-x="501" d="M111 1313v10l108 260h193v-6l-146 -264h-155z" />
<glyph unicode="&#xb5;" horiz-adv-x="1112" d="M121 -453v1643h203v-756q0 -281 239 -280q119 0 177 70t59 235v729h194v-1188h-166l-20 113q-29 -78 -97 -122t-153 -44q-195 0 -246 141v-541h-190z" />
<glyph unicode="&#xb6;" horiz-adv-x="1323" d="M86 1051q4 532 438 532h746v-194h-178v-1815h-199v1815h-219v-1817h-203v954q-389 31 -385 525z" />
<glyph unicode="&#xb7;" horiz-adv-x="411" d="M96 668q0 64 37 94q37 31 81 32t81 -30q37 -32 37 -94t-60 -92t-118 -2t-58 92z" />
<glyph unicode="&#xb8;" horiz-adv-x="602" d="M55 -371l70 109q43 -74 123 -74t98 70q12 57 -34 91t-115 3l-29 27l-4 -2l45 186h133l-23 -102q101 6 143 -66t26 -160t-86 -140q-69 -52 -158 -46q-133 8 -189 104z" />
<glyph unicode="&#xb9;" horiz-adv-x="542" d="M78 735v131h131v588h-98v129h237v-717h123v-131h-393z" />
<glyph unicode="&#xba;" horiz-adv-x="894" d="M96 1245q0 162 98 253t250 91t250 -91t98 -252t-99 -255t-249 -94t-248 93t-100 255zM133 610v158h627v-158h-627zM250 1246q0 -92 54 -148t142 -56t142 56t55 146q0 92 -57 150q-58 58 -142 58t-139 -57t-55 -149z" />
<glyph unicode="&#xbb;" horiz-adv-x="935" d="M106 160l279 450l-279 451h179l282 -451l-282 -450h-179zM375 160l278 450l-278 451h178l283 -451l-283 -450h-178z" />
<glyph unicode="&#xbc;" horiz-adv-x="1550" d="M106 735v131h132v588h-99v129h238v-717h123v-131h-394zM317 -4l758 1589h164l-762 -1589h-160zM877 279l331 550h168v-516h82v-143h-82v-172h-151v172h-330zM1067 313h160v133l20 197z" />
<glyph unicode="&#xbd;" horiz-adv-x="1660" d="M106 735v131h132v588h-99v129h238v-717h123v-131h-394zM317 -4l758 1589h164l-762 -1589h-160zM1006 0v180q0 151 73 218q39 36 66 52t78 42q111 53 110 133q0 90 -88 90q-98 0 -90 -123h-139q-16 266 233 266q111 0 172 -59t61 -167t-48 -164q-49 -56 -134 -95l-23 -11 q-19 -10 -36 -18t-26 -17t-20 -21t-15 -22q-4 -11 -12 -31t-9 -71v-30h328v-152h-481z" />
<glyph unicode="&#xbe;" horiz-adv-x="1648" d="M119 995h151q2 -123 100 -123t97 116q0 116 -98 116h-66v145h66q92 3 92 101t-88 98q-41 0 -69 -31t-28 -92h-147q-1 261 237 263q118 1 184 -55t66 -175q0 -48 -24 -100t-70 -72q104 -46 104 -184t-67 -208q-69 -70 -195 -71t-186 67t-59 205zM379 -4l758 1589h163 l-761 -1589h-160zM938 279l332 550h168v-516h82v-143h-82v-172h-152v172h-330zM1128 313h160v133l21 197z" />
<glyph unicode="&#xbf;" horiz-adv-x="1003" d="M92 57v72q0 113 29 195t73 126q82 82 188 164q44 34 73 98t28 150h185q0 -131 -39 -219t-95 -135t-112 -90q-134 -102 -135 -287v-68q2 -165 55 -231t180 -66t174 52q47 51 47 196h189q0 -102 -14 -172t-56 -133q-86 -127 -356 -127q-414 0 -414 475zM444 1102 q0 72 58 102t118 2t60 -101t-59 -103t-118 -1t-59 101z" />
<glyph unicode="&#xc0;" d="M18 0l420 1575h199l418 -1575h-201l-80 293h-473l-80 -293h-203zM307 1944v6h199l108 -260v-11h-161zM350 477h373l-82 336l-104 508l-107 -514z" />
<glyph unicode="&#xc1;" d="M18 0l420 1575h199l418 -1575h-201l-80 293h-473l-80 -293h-203zM350 477h373l-82 336l-104 508l-107 -514zM467 1671v10l108 261h193v-7l-145 -264h-156z" />
<glyph unicode="&#xc2;" d="M18 0l420 1575h199l418 -1575h-201l-80 293h-473l-80 -293h-203zM227 1665v14l246 250h117l254 -250v-14h-191l-116 117l-119 -117h-191zM350 477h373l-82 336l-104 508l-107 -514z" />
<glyph unicode="&#xc3;" d="M18 0l420 1575h199l418 -1575h-201l-80 293h-473l-80 -293h-203zM258 1720q23 92 93 134q71 42 157 12l92 -43q78 -29 105 53l116 -47q-20 -104 -90 -143t-147 -9l-90 41q-92 33 -123 -51zM350 477h373l-82 336l-104 508l-107 -514z" />
<glyph unicode="&#xc4;" d="M18 0l420 1575h199l418 -1575h-201l-80 293h-473l-80 -293h-203zM195 1750q0 64 36 95q37 31 81 32t81 -30t37 -93t-59 -92t-117 -2t-59 90zM350 477h373l-82 336l-104 508l-107 -514zM641 1750q0 64 37 95t81 32t81 -30t37 -93q1 -62 -59 -92t-118 -2t-59 90z" />
<glyph unicode="&#xc5;" d="M18 0l400 1501q-103 58 -103 187h2q0 100 65 156t154 56q90 0 156 -56t66 -154q0 -127 -103 -185l400 -1505h-201l-80 293h-473l-80 -293h-203zM350 477h373l-82 336l-104 508l-107 -514zM453 1642q25 -46 85 -47q60 0 85 46q25 47 -1 93t-85 46t-84 -46t0 -92z" />
<glyph unicode="&#xc6;" horiz-adv-x="1536" d="M4 0l629 1581h815v-166h-537v-481h504v-174h-504v-586h555v-174h-735v377h-385l-143 -377h-199zM412 551h319v852l-123 -352z" />
<glyph unicode="&#xc7;" horiz-adv-x="1187" d="M100 524v537q0 139 20 230q44 209 228 270q100 33 254 33q300 -1 402 -117q53 -61 72 -141t22 -201h-191q-2 154 -59 215t-244 61q-102 0 -164 -17q-62 -16 -93 -64q-32 -48 -41 -106t-9 -161v-541q0 -200 58 -274t252 -74t249 59t55 250h187q0 -99 -6 -163t-31 -132 t-72 -104q-108 -84 -332 -92l-20 -96q102 6 145 -67t26 -163t-85 -139t-162 -43q-133 8 -188 104l69 109q43 -74 123 -74t99 70q12 57 -34 91t-116 3l-29 27l-4 -2l43 180q-141 8 -228 44t-129 110t-54 157q-12 82 -13 221z" />
<glyph unicode="&#xc8;" horiz-adv-x="1042" d="M119 0v1581h796v-172h-602v-475h545v-182h-545v-570h654v-182h-848zM332 1942v6h198l109 -260v-11h-162z" />
<glyph unicode="&#xc9;" horiz-adv-x="1042" d="M119 0v1581h796v-172h-602v-475h545v-182h-545v-570h654v-182h-848zM451 1683v11l108 260h193v-6l-146 -265h-155z" />
<glyph unicode="&#xca;" horiz-adv-x="1042" d="M119 0v1581h796v-172h-602v-475h545v-182h-545v-570h654v-182h-848zM246 1690v14l246 250h116l254 -250v-14h-190l-117 116l-119 -116h-190z" />
<glyph unicode="&#xcb;" horiz-adv-x="1042" d="M119 0v1581h796v-172h-602v-475h545v-182h-545v-570h654v-182h-848zM197 1816q0 72 59 102q60 30 118 1t58 -101t-58 -101q-58 -30 -118 -2q-59 28 -59 101zM643 1816q0 72 59 102q60 30 118 1t58 -101t-58 -101q-58 -30 -118 -2q-59 28 -59 101z" />
<glyph unicode="&#xcc;" horiz-adv-x="481" d="M25 1946v6h198l109 -260v-11h-162zM143 -2v1577h199v-1577h-199z" />
<glyph unicode="&#xcd;" horiz-adv-x="485" d="M143 -2v1577h199v-1577h-199zM174 1704v10l109 260h192v-6l-145 -264h-156z" />
<glyph unicode="&#xce;" horiz-adv-x="485" d="M-61 1681v15l245 250h117l254 -250v-15h-190l-117 117l-119 -117h-190zM143 -2v1577h199v-1577h-199z" />
<glyph unicode="&#xcf;" horiz-adv-x="485" d="M-61 1781q0 73 59 103q60 30 118 0q58 -28 58 -100t-58 -102t-118 -2q-59 28 -59 101zM143 -2v1577h199v-1577h-199zM336 1781q0 73 59 103t117 0q58 -28 59 -100q0 -72 -58 -102t-118 -2q-59 28 -59 101z" />
<glyph unicode="&#xd0;" horiz-adv-x="1241" d="M6 702v160h150v717h479q305 0 407 -137q54 -72 72 -162t19 -229v-521q1 -139 -19 -230q-45 -211 -231 -269q-102 -33 -262 -31h-465v702h-150zM350 186h271q111 0 174 16q113 30 133 166q8 54 8 160v525q0 106 -8 160q-8 53 -39 101t-94 64t-174 17h-271v-533h244v-160 h-244v-516z" />
<glyph unicode="&#xd1;" horiz-adv-x="1126" d="M129 0v1579h184l535 -1208l-29 536v672h195v-1579h-183l-520 1135l13 -519v-616h-195zM289 1772q23 92 93 134q71 42 157 11l92 -43q78 -29 104 53l117 -47q-20 -104 -90 -143t-148 -8l-90 40q-92 33 -123 -51z" />
<glyph unicode="&#xd2;" horiz-adv-x="1220" d="M104 518v551q0 139 20 230q44 210 230 270q102 33 262 33t262 -33q184 -59 231 -270q19 -91 19 -230v-551q0 -139 -19 -230t-73 -164q-104 -140 -420 -139q-315 1 -418 139q-54 73 -74 164q-19 91 -20 230zM301 516q0 -106 8 -162q20 -137 133 -169q63 -17 174 -17 q110 0 174 17q113 30 134 169q8 56 8 162v555q0 86 -4 134q-11 127 -79 172q-69 46 -233 46q-163 0 -230 -46q-68 -46 -81 -172q-4 -48 -4 -134v-555zM412 1968v6h198l109 -260v-10h-162z" />
<glyph unicode="&#xd3;" horiz-adv-x="1220" d="M104 518v551q0 139 20 230q44 210 230 270q102 33 262 33t262 -33q184 -59 231 -270q19 -91 19 -230v-551q0 -139 -19 -230t-73 -164q-104 -140 -420 -139q-315 1 -418 139q-54 73 -74 164q-19 91 -20 230zM301 516q0 -106 8 -162q20 -137 133 -169q63 -17 174 -17 q110 0 174 17q113 30 134 169q8 56 8 162v555q0 86 -4 134q-11 127 -79 172q-69 46 -233 46q-163 0 -230 -46q-68 -46 -81 -172q-4 -48 -4 -134v-555zM555 1704v10l109 260h192v-6l-145 -264h-156z" />
<glyph unicode="&#xd4;" horiz-adv-x="1220" d="M104 518v551q0 139 20 230q44 210 230 270q102 33 262 33t262 -33q184 -59 231 -270q19 -91 19 -230v-551q0 -139 -19 -230t-73 -164q-104 -140 -420 -139q-315 1 -418 139q-54 73 -74 164q-19 91 -20 230zM301 516q0 -106 8 -162q20 -137 133 -169q63 -17 174 -17 q110 0 174 17q113 30 134 169q8 56 8 162v555q0 86 -4 134q-11 127 -79 172q-69 46 -233 46q-163 0 -230 -46q-68 -46 -81 -172q-4 -48 -4 -134v-555zM332 1704v14l246 250h116l254 -250v-14h-190l-117 117l-119 -117h-190z" />
<glyph unicode="&#xd5;" horiz-adv-x="1220" d="M104 518v551q0 139 20 230q44 210 230 270q102 33 262 33t262 -33q184 -59 231 -270q19 -91 19 -230v-551q0 -139 -19 -230t-73 -164q-104 -140 -420 -139q-315 1 -418 139q-54 73 -74 164q-19 91 -20 230zM301 516q0 -106 8 -162q20 -137 133 -169q63 -17 174 -17 q110 0 174 17q113 30 134 169q8 56 8 162v555q0 86 -4 134q-11 127 -79 172q-69 46 -233 46q-163 0 -230 -46q-68 -46 -81 -172q-4 -48 -4 -134v-555zM340 1772q23 92 93 134q71 42 157 11l92 -43q78 -29 104 53l117 -47q-20 -104 -90 -143t-147 -8l-91 40q-91 33 -122 -51z " />
<glyph unicode="&#xd6;" horiz-adv-x="1220" d="M104 518v551q0 139 20 230q44 210 230 270q102 33 262 33t262 -33q184 -59 231 -270q19 -91 19 -230v-551q0 -139 -19 -230t-73 -164q-104 -140 -420 -139q-315 1 -418 139q-54 73 -74 164q-19 91 -20 230zM289 1804q0 64 37 94t81 32q45 0 81 -30t36 -92t-59 -93 q-59 -30 -118 -2q-58 27 -58 91zM301 516q0 -106 8 -162q20 -137 133 -169q63 -17 174 -17q110 0 174 17q113 30 134 169q8 56 8 162v555q0 86 -4 134q-11 127 -79 172q-69 46 -233 46q-163 0 -230 -46q-68 -46 -81 -172q-4 -48 -4 -134v-555zM735 1804q0 64 37 94t81 32 q44 0 81 -30t37 -92q1 -62 -59 -93q-60 -30 -118 -2q-58 27 -59 91z" />
<glyph unicode="&#xd7;" horiz-adv-x="962" d="M139 424l234 233l-230 228l111 106l225 -227l228 227l108 -106l-231 -234l235 -233l-106 -103l-232 234l-231 -234z" />
<glyph unicode="&#xd8;" horiz-adv-x="1220" d="M104 518v551q0 139 20 230q44 210 230 270q102 33 236 33t231 -21l66 172h164l-86 -225q95 -59 129 -170t34 -289v-551q0 -139 -19 -230t-73 -164q-104 -140 -420 -138q-129 0 -225 22l-61 -164h-164l86 228q-84 62 -116 168t-32 278zM301 516q0 -178 29 -237l428 1132 q-58 12 -144 12q-161 0 -228 -46q-68 -46 -81 -172q-4 -48 -4 -134v-555zM457 182q57 -14 163 -14t170 17q113 30 134 169q8 56 8 162v555q0 193 -41 260z" />
<glyph unicode="&#xd9;" horiz-adv-x="1232" d="M123 520v1059h196v-1061q1 -196 59 -272t234 -76t232 76t57 272v1063h197v-1061q0 -272 -108 -402t-378 -130t-380 130t-109 402zM393 1960v6h199l108 -260v-10h-161z" />
<glyph unicode="&#xda;" horiz-adv-x="1232" d="M123 520v1059h196v-1061q1 -196 59 -272t234 -76t232 76t57 272v1063h197v-1061q0 -272 -108 -402t-378 -130t-380 130t-109 402zM539 1683v11l108 260h193v-6l-146 -265h-155z" />
<glyph unicode="&#xdb;" horiz-adv-x="1232" d="M123 520v1059h196v-1061q1 -196 59 -272t234 -76t232 76t57 272v1063h197v-1061q0 -272 -108 -402t-378 -130t-380 130t-109 402zM324 1696v14l245 250h117l254 -250v-14h-190l-117 116l-119 -116h-190z" />
<glyph unicode="&#xdc;" horiz-adv-x="1232" d="M123 520v1059h196v-1061q1 -196 59 -272t234 -76t232 76t57 272v1063h197v-1061q0 -272 -108 -402t-378 -130t-380 130t-109 402zM279 1824q0 72 59 102q60 30 118 1t58 -101t-58 -101q-58 -30 -118 -2q-59 28 -59 101zM725 1824q0 72 59 102q60 30 118 1t58 -101 t-58 -101q-58 -30 -118 -2q-59 28 -59 101z" />
<glyph unicode="&#xdd;" horiz-adv-x="944" d="M-4 1581h211l127 -307l139 -393l139 393l127 307h211l-381 -919v-664h-194v664zM385 1675v11l109 260h192v-7l-145 -264h-156z" />
<glyph unicode="&#xde;" horiz-adv-x="1085" d="M143 0v1579h195v-250h229q219 0 334 -100t115 -330v-172q0 -246 -104 -351t-345 -106h-229v-270h-195zM338 457h229q137 0 196 56q58 56 58 214v172q0 154 -55 200q-56 46 -199 46h-229v-688z" />
<glyph unicode="&#xdf;" horiz-adv-x="1058" d="M104 0v1196q0 194 84 302t291 108t289 -108t82 -312t-133 -303q266 -80 266 -402q0 -257 -109 -369t-364 -112h-119v172h123q164 0 219 77t55 227t-63 210t-205 62h-125v186h49q134 0 172 82q37 82 37 191q0 108 -38 166q-38 59 -137 59t-139 -60t-40 -176v-1196h-195z " />
<glyph unicode="&#xe0;" d="M90 276q-14 158 85 264t284 134q92 14 289 18v117q0 111 -50 167t-160 56t-159 -44t-47 -157h-191q-6 195 92 287t298 92q201 0 307 -95t106 -306v-809h-176l-16 162q-35 -72 -118 -122t-188 -50q-328 0 -356 286zM287 301q10 -125 180 -125q275 0 285 354 q-184 0 -277 -20q-209 -45 -188 -209zM350 1593v6h199l108 -260v-10h-161z" />
<glyph unicode="&#xe1;" d="M90 276q-14 158 85 264t284 134q92 14 289 18v117q0 111 -50 167t-160 56t-159 -44t-47 -157h-191q-6 195 92 287t298 92q201 0 307 -95t106 -306v-809h-176l-16 162q-35 -72 -118 -122t-188 -50q-328 0 -356 286zM287 301q10 -125 180 -125q275 0 285 354 q-184 0 -277 -20q-209 -45 -188 -209zM465 1333v10l108 261h193v-7l-145 -264h-156z" />
<glyph unicode="&#xe2;" d="M90 276q-14 158 85 264t284 134q92 14 289 18v117q0 111 -50 167t-160 56t-159 -44t-47 -157h-191q-6 195 92 287t298 92q201 0 307 -95t106 -306v-809h-176l-16 162q-35 -72 -118 -122t-188 -50q-328 0 -356 286zM260 1325v14l246 250h117l254 -250v-14h-191l-117 117 l-118 -117h-191zM287 301q10 -125 180 -125q275 0 285 354q-184 0 -277 -20q-209 -45 -188 -209z" />
<glyph unicode="&#xe3;" d="M90 276q-14 158 85 264t284 134q92 14 289 18v117q0 111 -50 167t-160 56t-159 -44t-47 -157h-191q-6 195 92 287t298 92q201 0 307 -95t106 -306v-809h-176l-16 162q-35 -72 -118 -122t-188 -50q-328 0 -356 286zM262 1436q23 92 93 134q71 42 157 11l92 -43 q78 -29 105 53l116 -47q-20 -104 -90 -143t-147 -8l-90 41q-92 32 -123 -52zM287 301q10 -125 180 -125q275 0 285 354q-184 0 -277 -20q-209 -45 -188 -209z" />
<glyph unicode="&#xe4;" d="M90 276q-14 158 85 264t284 134q92 14 289 18v117q0 111 -50 167t-160 56t-159 -44t-47 -157h-191q-6 195 92 287t298 92q201 0 307 -95t106 -306v-809h-176l-16 162q-35 -72 -118 -122t-188 -50q-328 0 -356 286zM254 1474q0 72 59 102t117 1t59 -101q0 -72 -58 -101 q-58 -30 -118 -2q-59 28 -59 101zM287 301q10 -125 180 -125q275 0 285 354q-184 0 -277 -20q-209 -45 -188 -209zM657 1464q0 64 37 95t81 31t81 -30t37 -92t-59 -93q-59 -30 -118 -2q-59 27 -59 91z" />
<glyph unicode="&#xe5;" d="M90 276q-14 158 85 264t284 134q92 14 289 18v117q0 111 -50 167t-160 56t-159 -44t-47 -157h-191q-6 195 92 287t298 92q201 0 307 -95t106 -306v-809h-176l-16 162q-35 -72 -118 -122t-188 -50q-328 0 -356 286zM287 301q10 -125 180 -125q275 0 285 354 q-184 0 -277 -20q-209 -45 -188 -209zM330 1487q0 90 64 141q65 51 155 51t158 -51q67 -51 67 -140t-66 -140q-66 -52 -160 -52q-96 0 -158 50t-60 141zM467 1446q25 -41 85 -41t85 41t-1 83t-85 42t-84 -42t0 -83z" />
<glyph unicode="&#xe6;" horiz-adv-x="1687" d="M80 276q-16 160 80 266t289 132q92 14 294 18v117q-1 223 -215 223q-110 0 -159 -44t-47 -157h-191q-6 195 92 287t293 92q236 0 313 -143q91 145 315 145t336 -102t111 -332v-260h-680v-90q1 -158 55 -212t186 -54t188 44t57 138h190q0 -182 -101 -273t-331 -91 q-145 0 -228 43t-130 135q-76 -94 -161 -136t-200 -42q-326 0 -356 296zM276 301q6 -65 56 -97t125 -32q281 0 291 352q-217 0 -283 -14q-209 -45 -189 -209zM911 692h492v86q-1 152 -61 206t-187 54t-185 -53t-59 -207v-86z" />
<glyph unicode="&#xe7;" horiz-adv-x="1081" d="M102 436v340q0 436 449 436q211 0 321 -90t117 -311l-184 -2q-7 133 -67 178t-190 45t-190 -51t-61 -205v-340q0 -156 60 -213q61 -57 195 -57t192 47t61 193h184q-2 -222 -92 -318t-295 -106l-20 -88q102 6 142 -64t24 -155t-84 -136t-158 -45q-129 8 -187 103l68 104 q18 -29 52 -51t71 -21q80 0 98 68q12 57 -34 89t-115 3l-29 25l-4 -2l43 172q-190 16 -279 124q-88 108 -88 328z" />
<glyph unicode="&#xe8;" horiz-adv-x="1085" d="M109 426v350q0 225 113 327q114 101 329 101q442 0 442 -428v-256h-692v-90q0 -154 57 -208t193 -54q250 0 250 180h188q0 -178 -105 -269t-339 -91t-335 99t-101 339zM301 690h506v86q0 148 -65 202q-66 54 -192 54t-188 -53t-61 -203v-86zM344 1587v6h199l108 -260v-10 h-162z" />
<glyph unicode="&#xe9;" horiz-adv-x="1085" d="M109 426v350q0 225 113 327q114 101 329 101q442 0 442 -428v-256h-692v-90q0 -154 57 -208t193 -54q250 0 250 180h188q0 -178 -105 -269t-339 -91t-335 99t-101 339zM301 690h506v86q0 148 -65 202q-66 54 -192 54t-188 -53t-61 -203v-86zM485 1333v10l109 261h192v-7 l-145 -264h-156z" />
<glyph unicode="&#xea;" horiz-adv-x="1085" d="M109 426v350q0 225 113 327q114 101 329 101q442 0 442 -428v-256h-692v-90q0 -154 57 -208t193 -54q250 0 250 180h188q0 -178 -105 -269t-339 -91t-335 99t-101 339zM254 1325v14l246 250h116l254 -250v-14h-190l-117 117l-119 -117h-190zM301 690h506v86 q0 148 -65 202q-66 54 -192 54t-188 -53t-61 -203v-86z" />
<glyph unicode="&#xeb;" horiz-adv-x="1085" d="M109 426v350q0 225 113 327q114 101 329 101q442 0 442 -428v-256h-692v-90q0 -154 57 -208t193 -54q250 0 250 180h188q0 -178 -105 -269t-339 -91t-335 99t-101 339zM260 1464q0 64 37 95t81 31t81 -30t37 -92t-60 -93q-60 -30 -118 -2q-58 27 -58 91zM301 690h506v86 q0 148 -65 202q-66 54 -192 54t-188 -53t-61 -203v-86zM655 1474q-1 72 59 102t118 1t59 -101q0 -72 -58 -101q-58 -30 -118 -2t-60 101z" />
<glyph unicode="&#xec;" horiz-adv-x="501" d="M55 1577v6h199l108 -260v-10h-161zM162 0v1190h194v-1190h-194z" />
<glyph unicode="&#xed;" horiz-adv-x="501" d="M162 0v1190h194v-1190h-194zM170 1313v10l109 260h192v-6l-145 -264h-156z" />
<glyph unicode="&#xee;" horiz-adv-x="501" d="M-2 1313v14l209 262h98l217 -262v-14h-162l-100 104l-100 -104h-162zM162 0v1190h194v-1190h-194z" />
<glyph unicode="&#xef;" horiz-adv-x="571" d="M-12 1474q0 72 59 102t117 1t59 -101q0 -72 -58 -101q-58 -30 -118 -2q-59 28 -59 101zM182 0v1190h195v-1190h-195zM354 1464q0 64 37 95t81 31t81 -30t37 -92t-60 -93q-60 -30 -118 -2q-58 27 -58 91z" />
<glyph unicode="&#xf0;" horiz-adv-x="1118" d="M115 436v291q0 211 103 314t288 104q117 0 211 -25q-49 92 -146 189l-131 -84l-63 96l108 72q-82 74 -225 176l4 14h258q55 -39 119 -92l133 90l66 -96l-113 -76q285 -303 285 -682v-291q0 -246 -104 -351t-345 -105q-242 0 -345 105t-103 351zM309 436q1 -158 59 -214 t195 -56t196 56q58 56 58 214v291q0 143 -58 197q-57 54 -195 53q-138 0 -196 -53t-59 -197v-291z" />
<glyph unicode="&#xf1;" horiz-adv-x="1193" d="M162 0v1198h174l12 -127q86 141 299 141t309 -99t97 -333v-780h-197v778q0 125 -62 191q-62 65 -175 65t-187 -66t-74 -188v-780h-196zM342 1438q23 92 93 134q71 42 157 11l92 -43q78 -29 104 53l117 -47q-20 -104 -90 -143t-147 -8l-90 41q-92 32 -123 -52z" />
<glyph unicode="&#xf2;" horiz-adv-x="1101" d="M102 436v342q0 230 116 332t333 102t333 -102t115 -332v-342q0 -244 -105 -350t-345 -106t-343 105t-104 351zM297 436q-1 -160 59 -223t196 -63t194 63t59 223v342q-1 154 -61 207t-193 53t-193 -53t-61 -207v-342zM354 1585v6h199l109 -260v-10h-162z" />
<glyph unicode="&#xf3;" horiz-adv-x="1101" d="M102 436v342q0 230 116 332t333 102t333 -102t115 -332v-342q0 -244 -105 -350t-345 -106t-343 105t-104 351zM297 436q-1 -160 59 -223t196 -63t194 63t59 223v342q-1 154 -61 207t-193 53t-193 -53t-61 -207v-342zM471 1313v10l109 260h192v-6l-145 -264h-156z" />
<glyph unicode="&#xf4;" horiz-adv-x="1101" d="M102 436v342q0 230 116 332t333 102t333 -102t115 -332v-342q0 -244 -105 -350t-345 -106t-343 105t-104 351zM262 1325v14l246 250h117l254 -250v-14h-191l-117 117l-118 -117h-191zM297 436q-1 -160 59 -223t196 -63t194 63t59 223v342q-1 154 -61 207t-193 53 t-193 -53t-61 -207v-342z" />
<glyph unicode="&#xf5;" horiz-adv-x="1101" d="M102 436v342q0 230 116 332t333 102t333 -102t115 -332v-342q0 -244 -105 -350t-345 -106t-343 105t-104 351zM285 1417q23 92 93 134q71 42 157 12l92 -43q78 -29 104 53l117 -47q-20 -104 -90 -144t-148 -8l-90 41q-92 33 -123 -51zM297 436q-1 -160 59 -223t196 -63 t194 63t59 223v342q-1 154 -61 207t-193 53t-193 -53t-61 -207v-342z" />
<glyph unicode="&#xf6;" horiz-adv-x="1101" d="M102 436v342q0 230 116 332t333 102t333 -102t115 -332v-342q0 -244 -105 -350t-345 -106t-343 105t-104 351zM244 1464q0 64 37 95t81 31t80 -30q37 -30 37 -92t-59 -93q-59 -30 -118 -2q-58 27 -58 91zM297 436q-1 -160 59 -223t196 -63t194 63t59 223v342 q-1 154 -61 207t-193 53t-193 -53t-61 -207v-342zM639 1474q0 72 59 102q60 30 118 1t58 -101t-58 -101q-58 -30 -118 -2q-59 28 -59 101z" />
<glyph unicode="&#xf7;" horiz-adv-x="1044" d="M72 592v166h868v-166h-868zM399 318q0 60 34 89t76 29t76 -30q33 -30 33 -88q0 -60 -55 -88t-109 0t-55 88zM399 1006q0 60 34 89t76 29t76 -30q33 -30 33 -88q0 -60 -55 -88t-109 0t-55 88z" />
<glyph unicode="&#xf8;" horiz-adv-x="1101" d="M102 436v342q0 230 116 332t333 102q92 0 170 -18l55 133h164l-82 -197q141 -106 141 -352v-342q0 -244 -105 -350t-343 -106q-90 0 -168 16l-59 -146h-164l84 201q-141 100 -142 385zM297 436q0 -115 31 -182l323 774q-47 10 -100 10q-133 0 -193 -53t-61 -207v-342z M453 160q35 -10 98 -10q137 0 195 63t59 223v342q0 100 -29 158z" />
<glyph unicode="&#xf9;" horiz-adv-x="1193" d="M160 418v772h196v-770q0 -125 62 -191q62 -65 176 -65q112 0 186 66t74 188v772h197v-1190h-174l-13 127q-86 -141 -299 -141t-309 99t-96 333zM420 1577v6h198l109 -260v-10h-162z" />
<glyph unicode="&#xfa;" horiz-adv-x="1193" d="M160 418v772h196v-770q0 -125 62 -191q62 -65 176 -65q112 0 186 66t74 188v772h197v-1190h-174l-13 127q-86 -141 -299 -141t-309 99t-96 333zM537 1313v10l108 260h193v-6l-146 -264h-155z" />
<glyph unicode="&#xfb;" horiz-adv-x="1193" d="M160 418v772h196v-770q0 -125 62 -191q62 -65 176 -65q112 0 186 66t74 188v772h197v-1190h-174l-13 127q-86 -141 -299 -141t-309 99t-96 333zM301 1325v14l246 250h117l254 -250v-14h-191l-117 117l-118 -117h-191z" />
<glyph unicode="&#xfc;" horiz-adv-x="1193" d="M160 418v772h196v-770q0 -125 62 -191q62 -65 176 -65q112 0 186 66t74 188v772h197v-1190h-174l-13 127q-86 -141 -299 -141t-309 99t-96 333zM291 1474q0 72 59 102q60 30 118 1t58 -101t-58 -101q-58 -30 -118 -2q-59 28 -59 101zM737 1474q-1 72 59 102t118 1 t58 -101t-58 -101q-58 -30 -118 -2t-59 101z" />
<glyph unicode="&#xfd;" horiz-adv-x="1005" d="M31 1198h213l114 -385l154 -555q43 219 150 567l116 373h203l-446 -1427q-57 -179 -161 -229t-276 20l35 166q79 -30 120 -22q74 14 109 122l50 170zM399 1313v10l109 260h192v-6l-145 -264h-156z" />
<glyph unicode="&#xfe;" horiz-adv-x="1150" d="M135 -403v1986h195v-528q32 73 110 111t181 38q406 0 405 -432v-315q0 -465 -405 -465q-107 0 -175 22t-114 82v-499h-197zM332 451q0 -152 56 -211q56 -60 190 -60t193 62q60 62 60 219v313q0 140 -56 194t-185 52t-194 -72t-64 -239v-258z" />
<glyph unicode="&#xff;" horiz-adv-x="1005" d="M31 1198h213l114 -385l154 -555q43 219 150 567l116 373h203l-446 -1427q-57 -179 -161 -229t-276 20l35 166q79 -30 120 -22q74 14 109 122l50 170zM174 1464q0 64 37 95t81 31t81 -30t37 -92t-60 -93q-60 -30 -118 -2q-58 27 -58 91zM621 1464q0 64 36 95q37 31 81 31 t81 -30t37 -92t-59 -93q-59 -30 -118 -2q-58 27 -58 91z" />
<glyph unicode="&#x152;" horiz-adv-x="1523" d="M104 528v521q0 139 20 230q44 211 230 269q102 33 262 33h801v-172h-506v-475h449v-182h-449v-570h527v-182h-822q-316 0 -418 136q-54 73 -74 163q-19 90 -20 229zM301 526q0 -106 8 -162q20 -142 134 -176q65 -18 173 -18h111v1247h-111q-163 0 -230 -49t-81 -182 q-4 -49 -4 -135v-525z" />
<glyph unicode="&#x153;" horiz-adv-x="1765" d="M102 436v342q0 230 116 332t333 102q262 0 342 -172q86 172 338 172q449 0 448 -434v-260h-702v-90q0 -156 58 -211t196 -55q254 0 254 182h190q0 -365 -444 -364q-268 0 -336 188q-90 -188 -338 -188t-351 105t-104 351zM297 436q-1 -160 59 -223t195 -63t193 62t61 224 v342q-1 154 -61 207t-193 53t-193 -53t-61 -207v-342zM977 692h514v86q0 152 -66 206q-65 54 -193 54t-190 -53t-65 -207v-86z" />
<glyph unicode="&#x178;" horiz-adv-x="944" d="M-4 1581h211l127 -307l139 -393l139 393l127 307h211l-381 -919v-664h-194v664zM131 1810q0 64 37 95t81 31t81 -30t37 -92q1 -62 -59 -93q-60 -30 -119 -2q-58 27 -58 91zM578 1820q0 72 59 102t117 1t59 -101q0 -72 -58 -101q-58 -30 -118 -2q-59 28 -59 101z" />
<glyph unicode="&#x2c6;" horiz-adv-x="727" d="M53 1325v14l246 250h117l254 -250v-14h-191l-117 117l-118 -117h-191z" />
<glyph unicode="&#x2dc;" horiz-adv-x="731" d="M82 1438q23 92 93 134q71 42 157 11l92 -43q78 -29 104 53l117 -47q-20 -104 -90 -143t-147 -8l-91 41q-91 32 -122 -52z" />
<glyph unicode="&#x2000;" horiz-adv-x="987" />
<glyph unicode="&#x2001;" horiz-adv-x="1974" />
<glyph unicode="&#x2002;" horiz-adv-x="987" />
<glyph unicode="&#x2003;" horiz-adv-x="1974" />
<glyph unicode="&#x2004;" horiz-adv-x="658" />
<glyph unicode="&#x2005;" horiz-adv-x="493" />
<glyph unicode="&#x2006;" horiz-adv-x="329" />
<glyph unicode="&#x2007;" horiz-adv-x="329" />
<glyph unicode="&#x2008;" horiz-adv-x="246" />
<glyph unicode="&#x2009;" horiz-adv-x="394" />
<glyph unicode="&#x200a;" horiz-adv-x="109" />
<glyph unicode="&#x2010;" horiz-adv-x="1009" d="M125 526v179h770v-179h-770z" />
<glyph unicode="&#x2011;" horiz-adv-x="1009" d="M125 526v179h770v-179h-770z" />
<glyph unicode="&#x2012;" horiz-adv-x="1009" d="M125 526v179h770v-179h-770z" />
<glyph unicode="&#x2013;" horiz-adv-x="1253" d="M158 612v158h938v-158h-938z" />
<glyph unicode="&#x2014;" horiz-adv-x="1462" d="M158 616v158h1147v-158h-1147z" />
<glyph unicode="&#x2018;" horiz-adv-x="501" d="M121 1190l137 391h137l-94 -391h-180z" />
<glyph unicode="&#x2019;" horiz-adv-x="491" d="M125 1188l96 399h180l-137 -399h-139z" />
<glyph unicode="&#x201a;" horiz-adv-x="516" d="M88 -236l94 398h180l-137 -398h-137z" />
<glyph unicode="&#x201c;" horiz-adv-x="774" d="M92 1186l139 395h138l-97 -395h-180zM389 1186l139 395h140l-99 -395h-180z" />
<glyph unicode="&#x201d;" horiz-adv-x="792" d="M129 1190l96 389h181l-138 -389h-139zM428 1190l94 389h180l-137 -389h-137z" />
<glyph unicode="&#x201e;" horiz-adv-x="813" d="M86 -236l96 398h180l-137 -398h-139zM385 -236l94 398h180l-137 -398h-137z" />
<glyph unicode="&#x2022;" horiz-adv-x="829" d="M186 653q0 101 65 163t163 62t163 -62q65 -64 65 -164t-65 -163q-65 -61 -161 -61v2q-100 0 -165 62t-65 161z" />
<glyph unicode="&#x2026;" horiz-adv-x="1210" d="M102 90q0 64 37 94q37 31 81 32t81 -30q37 -32 37 -94t-59 -92t-118 -2t-59 92zM494 90q0 64 36 94q37 31 81 32t81 -30q37 -32 37 -94t-59 -92q-60 -30 -118 -2t-58 92zM885 99q0 73 59 103q60 30 118 1t58 -101t-58 -102t-118 -2t-59 101z" />
<glyph unicode="&#x202f;" horiz-adv-x="394" />
<glyph unicode="&#x2039;" horiz-adv-x="667" d="M100 610l283 451h180l-280 -451l280 -452h-180z" />
<glyph unicode="&#x203a;" horiz-adv-x="671" d="M109 156l280 452l-280 451h180l282 -451l-282 -452h-180z" />
<glyph unicode="&#x205f;" horiz-adv-x="493" />
<glyph unicode="&#x20ac;" horiz-adv-x="1099" d="M57 846v158h142q43 270 196 433q154 163 426 162q84 0 180 -36l-45 -164q-59 23 -148 23q-197 -1 -289 -110q-91 -108 -134 -308h442l-30 -158h-443v-121h416l-25 -156h-362q39 -211 132 -313t310 -102q84 0 164 39l43 -170v-7q-109 -45 -237 -45q-129 0 -241 41 t-182 123q-130 151 -173 428h-140v156h121q-2 8 -2 56t2 71h-123z" />
<glyph unicode="&#x2122;" horiz-adv-x="1028" d="M51 1462v111h367v-111h-125v-536h-117v536h-125zM500 924v651h141l86 -254l86 254h141v-651h-114v217l10 186l-96 -289h-54l-96 289l10 -186v-217h-114z" />
<glyph unicode="&#x25fc;" horiz-adv-x="1195" d="M0 0v1195h1195v-1195h-1195z" />
<glyph unicode="&#xfb01;" horiz-adv-x="1112" d="M6 967v174h166v45q0 240 119 332t338 77v-178q-137 12 -199 -32t-63 -199v-41h600v-1145h-195v967h-405v-969h-195v969h-166zM756 1462q0 64 37 94t81 32q44 0 80 -30q37 -30 37 -92t-59 -93q-59 -30 -118 -2q-58 27 -58 91z" />
<glyph unicode="&#xfb02;" horiz-adv-x="1136" d="M121 -2v1155q0 241 130 351t355 89v-178q-145 14 -218 -41t-73 -221v-41h256v-180h-256v-934h-194zM762 311v1270h190v-1268q0 -69 28 -95t95 -25v-193q-180 0 -247 63q-66 64 -66 248z" />
</font>
</defs>
</svg>
